<?xml version="1.0" encoding="utf-8"?>
<!-- Generator: Adobe Illustrator 27.5.0, SVG Export Plug-In . SVG Version: 6.00 Build 0)  -->
<svg version="1.1" xmlns="http://www.w3.org/2000/svg" xmlns:xlink="http://www.w3.org/1999/xlink" x="0px" y="0px"
	 viewBox="0 0 500 500" style="enable-background:new 0 0 500 500;" xml:space="preserve">
<g id="Background_Complete">
	<g>
		<path style="fill:#F5F5F5;" d="M51.036,241.237l66.491-7.049l-7.257-64.586l-66.563,6.407l0.905,5.012l1.988-0.706
			c1.314-0.064,1.903,0.781,2.087,2.084c0.004,0.028,0.008,0.057,0.011,0.085c0.148,1.317-0.158,2.55-1.454,2.828l-2.509-0.152
			l0.511,4.544c0,0,4.416-1.013,4.619,1.8c0,0-0.193,2.602-4.157,2.312l0.426,3.79c0,0,4.41-1.205,4.656,1.707
			c0.208,2.473-2.358,2.654-4.158,2.728l0.449,3.998c0,0,4.391-0.903,4.329,2.078c-0.062,2.981-3.823,2.425-3.823,2.425l0.572,5.091
			c0,0,4.059-1.78,4.4,1.255c0.341,3.035-2.925,2.811-3.97,2.569l0.435,3.87c0,0,4.141-1.772,4.334,2.126
			c0.145,2.926-3.901,1.733-3.901,1.733l0.605,5.384c0,0,4.064-1.733,4.39,1.17c0.232,2.065-2.258,3.052-4.027,2.061L51.036,241.237
			z"/>
		
			<rect x="61.266" y="165.624" transform="matrix(0.9993 -0.0363 0.0363 0.9993 -6.1633 3.0641)" style="fill:#E0E0E0;" width="39.889" height="10.919"/>
		<g>
			<path style="fill:#E0E0E0;" d="M102.116,186.584c0.002,0.036-0.581,0.106-1.637,0.203c-1.146,0.092-2.654,0.214-4.475,0.36
				c-3.78,0.281-9.004,0.634-14.776,0.991c-5.774,0.358-11.002,0.652-14.788,0.839c-1.825,0.079-3.336,0.145-4.485,0.195
				c-1.06,0.034-1.647,0.036-1.649,0.001c-0.002-0.036,0.58-0.106,1.636-0.203c1.146-0.092,2.654-0.214,4.475-0.36
				c3.78-0.281,9.005-0.634,14.779-0.992c5.772-0.357,11-0.652,14.785-0.839c1.825-0.079,3.336-0.145,4.485-0.195
				C101.526,186.551,102.113,186.549,102.116,186.584z"/>
		</g>
		<g>
			<path style="fill:#E0E0E0;" d="M103.706,194.682c0.002,0.036-0.581,0.106-1.637,0.203c-1.146,0.092-2.654,0.214-4.475,0.36
				c-3.78,0.281-9.004,0.634-14.776,0.991c-5.774,0.358-11.002,0.652-14.788,0.839c-1.825,0.079-3.336,0.145-4.485,0.195
				c-1.06,0.034-1.647,0.037-1.649,0.001s0.58-0.106,1.636-0.203c1.146-0.092,2.654-0.214,4.475-0.36
				c3.78-0.281,9.005-0.634,14.779-0.992c5.772-0.357,10.999-0.652,14.785-0.839c1.825-0.079,3.336-0.145,4.485-0.195
				C103.117,194.648,103.704,194.646,103.706,194.682z"/>
		</g>
		<g>
			<path style="fill:#E0E0E0;" d="M104.285,202.997c0.002,0.036-0.581,0.106-1.637,0.203c-1.147,0.092-2.654,0.214-4.475,0.36
				c-3.78,0.281-9.004,0.634-14.776,0.991c-5.774,0.357-11.002,0.652-14.788,0.839c-1.825,0.079-3.336,0.145-4.485,0.195
				c-1.06,0.034-1.647,0.036-1.649,0.001c-0.002-0.036,0.58-0.106,1.636-0.203c1.146-0.092,2.654-0.214,4.475-0.36
				c3.78-0.281,9.005-0.634,14.779-0.992c5.772-0.357,10.999-0.652,14.785-0.839c1.825-0.079,3.336-0.145,4.485-0.195
				C103.695,202.963,104.282,202.961,104.285,202.997z"/>
		</g>
		<g>
			<path style="fill:#E0E0E0;" d="M105.297,211.311c0.002,0.036-0.581,0.106-1.637,0.203c-1.146,0.092-2.654,0.214-4.475,0.36
				c-3.78,0.281-9.004,0.634-14.776,0.991c-5.774,0.358-11.002,0.652-14.788,0.839c-1.825,0.079-3.336,0.145-4.485,0.195
				c-1.06,0.034-1.647,0.036-1.649,0.001c-0.002-0.036,0.58-0.106,1.636-0.203c1.146-0.092,2.654-0.214,4.475-0.36
				c3.78-0.281,9.005-0.634,14.779-0.992c5.772-0.357,11-0.652,14.785-0.839c1.825-0.079,3.336-0.145,4.485-0.195
				C104.707,211.277,105.295,211.275,105.297,211.311z"/>
		</g>
		<g>
			<path style="fill:#E0E0E0;" d="M107.61,220.27c0.002,0.036-0.581,0.106-1.637,0.203c-1.146,0.092-2.654,0.214-4.475,0.36
				c-3.78,0.281-9.004,0.634-14.776,0.992c-5.774,0.357-11.002,0.652-14.788,0.839c-1.825,0.079-3.336,0.145-4.485,0.195
				c-1.06,0.035-1.647,0.036-1.649,0.001c-0.002-0.036,0.581-0.106,1.636-0.203c1.146-0.092,2.654-0.214,4.475-0.36
				c3.78-0.281,9.005-0.634,14.779-0.992c5.772-0.357,11-0.652,14.785-0.839c1.825-0.079,3.336-0.145,4.485-0.195
				C107.021,220.236,107.608,220.234,107.61,220.27z"/>
		</g>
	</g>
	<g>
		<path style="fill:#FAFAFA;" d="M95.2,67.341l-0.419,66.862h64.993l1.066-66.862l-5.081,0.339l0.479,2.054
			c-0.084,1.313-0.989,1.804-2.304,1.842c-0.029,0.001-0.057,0.001-0.086,0.001c-1.325,0.001-2.516-0.441-2.648-1.76l0.432-2.476
			h-4.573c0,0,0.514,4.501-2.304,4.389c0,0-2.564-0.482-1.834-4.389h-3.813c0,0,0.705,4.517-2.216,4.436
			c-2.481-0.069-2.374-2.639-2.246-4.436h-4.023c0,0,0.407,4.464-2.549,4.07c-2.955-0.394-1.983-4.07-1.983-4.07h-5.123
			c0,0,1.316,4.232-1.738,4.232c-3.054,0-2.467-3.221-2.11-4.232h-3.895c0,0,1.298,4.313-2.596,4.07
			c-2.923-0.183-1.286-4.07-1.286-4.07h-5.418c0,0,1.268,4.232-1.652,4.232c-2.078,0-2.781-2.585-1.599-4.232H95.2z"/>
		
			<rect x="83.4" y="66.21" transform="matrix(0.8134 -0.5816 0.5816 0.8134 -22.5173 70.9077)" style="fill:#EBEBEB;" width="31.76" height="8.694"/>
		
			<rect x="141.328" y="127.416" transform="matrix(0.8134 -0.5816 0.5816 0.8134 -47.311 116.0185)" style="fill:#EBEBEB;" width="31.76" height="8.694"/>
		<g>
			<path style="fill:#E0E0E0;" d="M153.946,85.001c0,0.018-0.175,0.036-0.508,0.052c-0.393,0.013-0.873,0.029-1.456,0.049
				c-1.343,0.021-3.153,0.049-5.354,0.083c-4.52,0.047-10.765,0.076-17.662,0.076c-6.899,0-13.145-0.029-17.665-0.076
				c-2.201-0.034-4.01-0.062-5.353-0.083c-0.582-0.02-1.063-0.036-1.455-0.049c-0.333-0.017-0.507-0.035-0.507-0.052
				c0-0.018,0.175-0.035,0.507-0.052c0.393-0.013,0.873-0.029,1.455-0.049c1.343-0.021,3.153-0.049,5.353-0.083
				c4.521-0.047,10.766-0.076,17.665-0.076c6.897,0,13.142,0.029,17.662,0.076c2.201,0.034,4.01,0.062,5.354,0.083
				c0.582,0.02,1.063,0.036,1.456,0.049C153.771,84.965,153.946,84.983,153.946,85.001z"/>
		</g>
		<g>
			<path style="fill:#E0E0E0;" d="M152.793,97.03c0,0.018-0.167,0.035-0.484,0.053c-0.378,0.013-0.837,0.029-1.389,0.049
				c-1.288,0.021-3.014,0.049-5.109,0.083c-4.314,0.047-10.273,0.076-16.855,0.076c-6.584,0-12.544-0.029-16.858-0.076
				c-2.095-0.034-3.82-0.062-5.109-0.083c-0.553-0.02-1.011-0.036-1.389-0.049c-0.318-0.017-0.484-0.035-0.484-0.053
				c0-0.018,0.167-0.035,0.484-0.052c0.378-0.013,0.836-0.029,1.389-0.049c1.288-0.021,3.014-0.049,5.109-0.083
				c4.314-0.047,10.274-0.076,16.858-0.076c6.582,0,12.541,0.029,16.855,0.076c2.095,0.034,3.821,0.062,5.109,0.083
				c0.553,0.019,1.011,0.035,1.389,0.049C152.626,96.995,152.793,97.012,152.793,97.03z"/>
		</g>
		<g>
			<path style="fill:#E0E0E0;" d="M130.095,108.642c0,0.072-1.335,0.137-3.493,0.184c-2.158,0.047-5.139,0.076-8.432,0.076
				c-3.294,0-6.275-0.029-8.434-0.076c-2.158-0.047-3.493-0.112-3.493-0.184s1.335-0.137,3.493-0.184
				c2.158-0.047,5.14-0.076,8.434-0.076c3.293,0,6.274,0.029,8.432,0.076C128.76,108.505,130.095,108.57,130.095,108.642z"/>
		</g>
	</g>
</g>
<g id="Background_Simple" style="display:none;">
	<path style="display:inline;fill:#F5F5F5;" d="M100.929,143.689C75.7,193.96,83.68,257.414,115.213,303.99
		c31.533,46.576,83.993,76.731,139.157,87.712c39.378,7.838,81.74,6.242,117.72-11.576c35.98-17.819,64.272-53.667,66.429-93.76
		c0.815-15.144-2.397-31.224-12.503-42.531c-16.136-18.055-43.684-18.691-67.887-17.945c-24.203,0.745-51.732,0.18-67.948-17.804
		c-12.459-13.819-14.294-33.863-20.859-51.273c-11.164-29.602-38.096-52.716-69.049-59.258c-4.299-0.909-8.657-1.494-13.033-1.767
		c-34.044-2.126-66.334,15.393-84.193,44.454L100.929,143.689z"/>
</g>
<g id="Floor">
	<g>
		<path style="fill:#263238;" d="M473.884,461.861c0,0.144-92.698,0.26-207.02,0.26c-114.362,0-207.04-0.117-207.04-0.26
			s92.678-0.26,207.04-0.26C381.186,461.6,473.884,461.717,473.884,461.861z"/>
	</g>
</g>
<g id="Plant">
	<g>
		<path style="fill:#E8505B;" d="M388.048,423.079c-1.771,2.53-5.214,1.692-6.81,0.148c-1.596-1.544-2.271-3.782-2.885-5.916
			c-1.403-4.876-2.818-9.991-1.775-14.957c0.312-1.484,0.867-2.965,1.91-4.066c1.043-1.101,2.647-1.757,4.114-1.369
			c1.736,0.458,2.815,2.159,3.594,3.776c2.292,4.754,3.505,10.023,3.523,15.301C389.729,418.459,389.438,421.044,388.048,423.079"/>
		<path style="opacity:0.2;" d="M388.048,423.079c-1.771,2.53-5.214,1.692-6.81,0.148c-1.596-1.544-2.271-3.782-2.885-5.916
			c-1.403-4.876-2.818-9.991-1.775-14.957c0.312-1.484,0.867-2.965,1.91-4.066c1.043-1.101,2.647-1.757,4.114-1.369
			c1.736,0.458,2.815,2.159,3.594,3.776c2.292,4.754,3.505,10.023,3.523,15.301C389.729,418.459,389.438,421.044,388.048,423.079"/>
		<path style="fill:#E8505B;" d="M381.412,435.89c-2.897-1.495-6.307-1.689-9.523-1.157c-1.728,0.286-3.529,0.803-4.704,2.1
			c-1.176,1.298-1.398,3.581-0.048,4.697c0.803,0.664,1.924,0.764,2.966,0.752c2.518-0.029,5.311-0.473,7.322,1.042
			c1.147,0.864,1.911,2.301,3.283,2.726c1.342,0.416,2.857-0.376,3.568-1.588c0.712-1.211,0.735-2.726,0.404-4.091
			C384.679,440.371,384.33,437.395,381.412,435.89z"/>
		<path style="fill:#E8505B;" d="M392.912,426.709c-1.923-2.282-2.288-5.611-1.432-8.471c0.856-2.859,2.789-5.292,5.017-7.278
			c2.612-2.328,5.683-4.14,8.984-5.301c1.299-0.457,2.669-0.817,4.04-0.686c1.371,0.131,2.751,0.832,3.391,2.052
			c0.945,1.803,0.039,3.99-0.941,5.775c-1.727,3.144-3.702,6.151-5.901,8.986c-1.769,2.28-3.795,4.53-6.49,5.56
			c-2.695,1.03-5.496,0.909-6.924-0.96"/>
		<g>
			<path style="fill:#263238;" d="M388.168,461.239c-0.033,0.002-0.087-0.408-0.16-1.15c-0.081-0.836-0.184-1.887-0.305-3.137
				c-0.146-1.32-0.339-2.891-0.706-4.602c-0.366-1.706-0.938-3.556-1.672-5.431c-0.761-1.864-1.689-3.559-2.773-4.914
				c-1.077-1.361-2.329-2.346-3.506-2.915c-1.173-0.58-2.225-0.815-2.953-0.92c-0.733-0.075-1.144-0.133-1.144-0.166
				c0-0.033,0.411-0.038,1.165-0.018c0.747,0.05,1.842,0.239,3.079,0.801c1.241,0.55,2.569,1.551,3.698,2.94
				c1.138,1.384,2.1,3.115,2.875,5.013c0.748,1.908,1.311,3.777,1.661,5.52c0.348,1.74,0.507,3.329,0.612,4.659
				c0.1,1.332,0.137,2.411,0.155,3.157C388.209,460.824,388.2,461.237,388.168,461.239z"/>
		</g>
		<g>
			<path style="fill:#263238;" d="M387.952,458.825c-0.016-0.001-0.026-0.185-0.031-0.534c0.001-0.401,0.002-0.905,0.004-1.525
				c0.004-1.324,0.003-3.239-0.068-5.605c-0.117-4.731-0.524-11.261-1.311-18.439c-0.793-7.18-1.843-13.639-2.8-18.273
				c-0.226-1.161-0.454-2.207-0.669-3.122c-0.205-0.918-0.379-1.708-0.548-2.348c-0.145-0.603-0.263-1.093-0.356-1.483
				c-0.076-0.341-0.109-0.522-0.093-0.526c0.016-0.005,0.079,0.168,0.185,0.5c0.116,0.384,0.263,0.867,0.443,1.462
				c0.196,0.634,0.398,1.42,0.627,2.333c0.24,0.911,0.491,1.954,0.739,3.114c1.044,4.628,2.15,11.095,2.944,18.291
				c0.788,7.193,1.143,13.742,1.175,18.485c0.028,2.371-0.022,4.291-0.083,5.616c-0.038,0.62-0.069,1.124-0.093,1.524
				C387.99,458.644,387.968,458.826,387.952,458.825z"/>
		</g>
		<g>
			<path style="fill:#263238;" d="M387.92,446.193c-0.033-0.001-0.027-0.567,0.011-1.593c0.059-1.024,0.199-2.504,0.488-4.317
				c0.306-1.809,0.733-3.956,1.404-6.289c0.638-2.342,1.515-4.87,2.63-7.442c2.182-5.175,5.145-9.406,7.724-12.026
				c0.605-0.695,1.278-1.197,1.817-1.689c0.279-0.236,0.525-0.471,0.776-0.657c0.252-0.174,0.487-0.336,0.705-0.486
				c0.849-0.58,1.324-0.886,1.341-0.859c0.076,0.103-1.901,1.267-4.397,3.922c-2.486,2.65-5.367,6.852-7.531,11.983
				c-1.105,2.55-1.988,5.054-2.645,7.374c-0.69,2.311-1.148,4.436-1.494,6.227c-0.329,1.795-0.52,3.26-0.634,4.274
				C388.021,445.631,387.953,446.194,387.92,446.193z"/>
		</g>
	</g>
</g>
<g id="Notebook">
	<g>
		<g>
			<path style="fill:#455A64;" d="M389.583,373.193l-216.348-27.513L210.92,49.35l221.718,28.196
				c2.425,0.308,4.14,2.524,3.832,4.949l-35.885,282.179C399.899,370.064,394.974,373.878,389.583,373.193z"/>
			
				<rect x="423.554" y="122.602" transform="matrix(0.1262 -0.992 0.992 0.1262 241.4355 546.3231)" style="fill:#E8505B;" width="14.529" height="27.035"/>
			
				<rect x="423.554" y="122.602" transform="matrix(0.1262 -0.992 0.992 0.1262 241.4355 546.3231)" style="opacity:0.3;" width="14.529" height="27.035"/>
			
				<rect x="200.471" y="70.705" transform="matrix(0.992 0.1262 -0.1262 0.992 29.2815 -36.8942)" style="fill:#E0E0E0;" width="210.904" height="284.055"/>
			
				<rect x="191.579" y="66.082" transform="matrix(0.992 0.1262 -0.1262 0.992 28.6272 -35.8094)" style="fill:#FAFAFA;" width="210.904" height="284.055"/>
			<g>
				<line style="fill:none;stroke:#E0E0E0;stroke-miterlimit:10;" x1="213.516" y1="81.801" x2="422.002" y2="108.315"/>
				<line style="fill:none;stroke:#E0E0E0;stroke-miterlimit:10;" x1="213.052" y1="95.981" x2="421.537" y2="122.494"/>
				<line style="fill:none;stroke:#E0E0E0;stroke-miterlimit:10;" x1="211.27" y1="109.992" x2="419.755" y2="136.506"/>
				<line style="fill:none;stroke:#E0E0E0;stroke-miterlimit:10;" x1="209.488" y1="124.004" x2="417.974" y2="150.517"/>
				<line style="fill:none;stroke:#E0E0E0;stroke-miterlimit:10;" x1="207.706" y1="138.016" x2="416.192" y2="164.529"/>
				<line style="fill:none;stroke:#E0E0E0;stroke-miterlimit:10;" x1="205.924" y1="152.027" x2="414.41" y2="178.541"/>
				<line style="fill:none;stroke:#E0E0E0;stroke-miterlimit:10;" x1="204.142" y1="166.039" x2="412.628" y2="192.552"/>
				<line style="fill:none;stroke:#E0E0E0;stroke-miterlimit:10;" x1="202.361" y1="180.051" x2="410.846" y2="206.564"/>
				<line style="fill:none;stroke:#E0E0E0;stroke-miterlimit:10;" x1="200.579" y1="194.062" x2="409.064" y2="220.576"/>
				<line style="fill:none;stroke:#E0E0E0;stroke-miterlimit:10;" x1="198.797" y1="208.074" x2="407.282" y2="234.587"/>
				<line style="fill:none;stroke:#E0E0E0;stroke-miterlimit:10;" x1="197.015" y1="222.085" x2="405.5" y2="248.599"/>
				<line style="fill:none;stroke:#E0E0E0;stroke-miterlimit:10;" x1="195.233" y1="236.097" x2="403.718" y2="262.611"/>
				<line style="fill:none;stroke:#E0E0E0;stroke-miterlimit:10;" x1="193.451" y1="250.109" x2="401.937" y2="276.622"/>
				<line style="fill:#455A64;" x1="191.669" y1="264.121" x2="400.155" y2="290.634"/>
				<line style="fill:none;stroke:#E0E0E0;stroke-miterlimit:10;" x1="189.887" y1="278.132" x2="398.373" y2="304.645"/>
				<line style="fill:none;stroke:#E0E0E0;stroke-miterlimit:10;" x1="188.106" y1="292.144" x2="396.591" y2="318.657"/>
				<line style="fill:none;stroke:#E0E0E0;stroke-miterlimit:10;" x1="186.324" y1="306.155" x2="394.809" y2="332.669"/>
				<line style="fill:none;stroke:#E0E0E0;stroke-miterlimit:10;" x1="184.542" y1="320.167" x2="393.027" y2="346.68"/>
			</g>
			<line style="fill:none;stroke:#E8505B;stroke-miterlimit:10;" x1="243.527" y1="59.635" x2="207.816" y2="340.449"/>
			<g>
				<path style="fill:#455A64;" d="M228.555,71.297c-0.299,2.349-2.445,4.012-4.795,3.713c-2.349-0.299-4.012-2.445-3.713-4.795
					c0.299-2.349,2.445-4.012,4.795-3.713C227.192,66.801,228.854,68.948,228.555,71.297z"/>
				<path style="fill:#455A64;" d="M224.579,102.563c-0.299,2.349-2.446,4.012-4.795,3.713c-2.349-0.299-4.012-2.445-3.713-4.795
					c0.299-2.349,2.445-4.012,4.795-3.713C223.216,98.066,224.878,100.213,224.579,102.563z"/>
				<path style="fill:#455A64;" d="M220.603,133.828c-0.299,2.349-2.445,4.012-4.795,3.713c-2.349-0.299-4.012-2.445-3.713-4.795
					c0.299-2.349,2.446-4.012,4.795-3.713C219.24,129.332,220.902,131.479,220.603,133.828z"/>
				<path style="fill:#455A64;" d="M216.627,165.094c-0.299,2.349-2.445,4.012-4.795,3.713c-2.349-0.299-4.012-2.445-3.713-4.795
					c0.299-2.349,2.445-4.012,4.795-3.713C215.264,160.598,216.926,162.745,216.627,165.094z"/>
				<path style="fill:#455A64;" d="M212.651,196.36c-0.299,2.349-2.446,4.012-4.795,3.713c-2.349-0.299-4.012-2.445-3.713-4.795
					c0.299-2.349,2.445-4.012,4.795-3.713C211.287,191.864,212.95,194.01,212.651,196.36z"/>
				<path style="fill:#455A64;" d="M208.675,227.626c-0.299,2.349-2.445,4.012-4.795,3.713c-2.349-0.299-4.012-2.445-3.713-4.795
					c0.299-2.349,2.445-4.012,4.795-3.713C207.311,223.13,208.974,225.276,208.675,227.626z"/>
				<path style="fill:#455A64;" d="M204.699,258.891c-0.299,2.349-2.445,4.012-4.795,3.713c-2.349-0.299-4.012-2.445-3.713-4.795
					c0.299-2.349,2.445-4.012,4.795-3.713C203.335,254.395,204.998,256.542,204.699,258.891z"/>
				<path style="fill:#455A64;" d="M200.723,290.157c-0.299,2.349-2.445,4.012-4.795,3.713c-2.349-0.299-4.012-2.445-3.713-4.795
					c0.299-2.349,2.445-4.012,4.795-3.713C199.359,285.661,201.021,287.808,200.723,290.157z"/>
				<path style="fill:#455A64;" d="M196.747,321.423c-0.299,2.349-2.446,4.012-4.795,3.713c-2.349-0.299-4.012-2.445-3.713-4.795
					s2.445-4.012,4.795-3.713C195.383,316.927,197.045,319.073,196.747,321.423z"/>
				<g>
					<path style="fill:#E8505B;" d="M207.323,83.709c-0.015,0.052-0.177,0.049-0.476-0.006c-0.294-0.067-0.748-0.133-1.288-0.346
						c-0.536-0.225-1.206-0.493-1.894-0.981c-0.708-0.451-1.425-1.113-2.102-1.941c-0.635-0.853-1.264-1.871-1.639-3.074
						c-0.398-1.191-0.637-2.523-0.649-3.933c0.017-1.396,0.127-2.929,0.895-4.41c0.728-1.416,1.866-2.655,3.238-3.583
						c1.373-0.93,2.915-1.519,4.446-1.776c1.528-0.26,3.029-0.215,4.41,0.004c2.773,0.454,5.056,1.58,6.786,2.692
						c1.74,1.12,2.978,2.229,3.799,3.019c0.815,0.799,1.206,1.299,1.137,1.377c-0.074,0.083-0.602-0.263-1.524-0.909
						c-0.926-0.636-2.243-1.589-3.975-2.538c-1.726-0.946-3.9-1.881-6.43-2.217c-1.259-0.162-2.597-0.169-3.934,0.079
						c-1.329,0.242-2.657,0.762-3.837,1.562c-1.179,0.797-2.139,1.837-2.758,2.999c-0.611,1.104-0.766,2.462-0.812,3.709
						c-0.027,1.26,0.143,2.46,0.445,3.536c0.281,1.089,0.787,2.009,1.294,2.809c0.548,0.773,1.135,1.421,1.735,1.896
						c0.577,0.51,1.162,0.834,1.628,1.129c0.472,0.284,0.878,0.438,1.132,0.599C207.206,83.553,207.338,83.657,207.323,83.709z"/>
					<path style="fill:#E8505B;" d="M203.347,114.975c-0.015,0.052-0.177,0.049-0.476-0.006c-0.294-0.067-0.748-0.133-1.288-0.346
						c-0.536-0.225-1.206-0.492-1.894-0.981c-0.708-0.452-1.425-1.113-2.102-1.941c-0.634-0.853-1.264-1.871-1.639-3.074
						c-0.397-1.191-0.637-2.523-0.649-3.933c0.016-1.396,0.127-2.929,0.895-4.41c0.728-1.416,1.866-2.655,3.238-3.583
						c1.373-0.93,2.915-1.519,4.446-1.776c1.529-0.26,3.029-0.215,4.41,0.004c2.773,0.454,5.056,1.58,6.786,2.692
						c1.74,1.12,2.978,2.229,3.799,3.019c0.815,0.799,1.206,1.299,1.136,1.377c-0.073,0.083-0.602-0.263-1.524-0.909
						c-0.926-0.636-2.243-1.588-3.976-2.538c-1.726-0.946-3.9-1.881-6.43-2.217c-1.259-0.162-2.597-0.169-3.934,0.079
						c-1.329,0.242-2.657,0.762-3.837,1.562c-1.179,0.797-2.139,1.837-2.758,2.999c-0.611,1.104-0.766,2.462-0.812,3.709
						c-0.027,1.26,0.143,2.461,0.446,3.536c0.281,1.089,0.787,2.009,1.294,2.809c0.548,0.773,1.135,1.421,1.735,1.896
						c0.577,0.51,1.162,0.834,1.628,1.13c0.472,0.284,0.878,0.438,1.132,0.599C203.23,114.819,203.362,114.923,203.347,114.975z"/>
					<path style="fill:#E8505B;" d="M199.371,146.24c-0.015,0.052-0.177,0.049-0.476-0.006c-0.294-0.067-0.748-0.133-1.288-0.346
						c-0.536-0.225-1.206-0.492-1.894-0.981c-0.708-0.452-1.425-1.113-2.102-1.941c-0.634-0.853-1.264-1.871-1.639-3.074
						c-0.398-1.191-0.637-2.523-0.649-3.933c0.017-1.396,0.127-2.929,0.895-4.41c0.728-1.416,1.866-2.655,3.238-3.583
						c1.373-0.93,2.915-1.519,4.446-1.776c1.529-0.26,3.029-0.215,4.41,0.004c2.773,0.453,5.056,1.58,6.786,2.692
						c1.74,1.12,2.978,2.229,3.799,3.019c0.815,0.799,1.206,1.299,1.136,1.377c-0.074,0.083-0.602-0.263-1.524-0.908
						c-0.926-0.636-2.243-1.589-3.975-2.538c-1.726-0.946-3.9-1.881-6.43-2.217c-1.259-0.162-2.597-0.168-3.934,0.079
						c-1.329,0.242-2.656,0.762-3.837,1.562c-1.179,0.797-2.139,1.837-2.758,2.999c-0.611,1.104-0.766,2.462-0.812,3.709
						c-0.027,1.26,0.143,2.461,0.445,3.536c0.281,1.089,0.787,2.008,1.294,2.809c0.549,0.773,1.135,1.421,1.735,1.895
						c0.577,0.51,1.162,0.834,1.628,1.13c0.472,0.284,0.878,0.438,1.132,0.599C199.254,146.085,199.386,146.189,199.371,146.24z"/>
					<path style="fill:#E8505B;" d="M195.395,177.506c-0.015,0.052-0.177,0.049-0.476-0.006c-0.294-0.067-0.748-0.133-1.288-0.346
						c-0.536-0.225-1.206-0.493-1.894-0.981c-0.708-0.452-1.425-1.113-2.102-1.941c-0.635-0.853-1.264-1.871-1.639-3.074
						c-0.398-1.191-0.637-2.523-0.649-3.933c0.017-1.396,0.127-2.929,0.895-4.41c0.728-1.416,1.866-2.655,3.238-3.583
						c1.373-0.93,2.915-1.519,4.446-1.776c1.528-0.26,3.029-0.215,4.41,0.004c2.773,0.453,5.056,1.58,6.786,2.692
						c1.74,1.12,2.978,2.229,3.799,3.019c0.815,0.799,1.206,1.299,1.137,1.377c-0.074,0.083-0.602-0.263-1.524-0.909
						c-0.926-0.636-2.243-1.588-3.975-2.538c-1.726-0.946-3.9-1.881-6.43-2.217c-1.259-0.162-2.597-0.169-3.934,0.079
						c-1.329,0.242-2.657,0.762-3.837,1.562c-1.179,0.797-2.139,1.837-2.758,2.999c-0.611,1.104-0.766,2.462-0.812,3.709
						c-0.027,1.26,0.143,2.46,0.446,3.536c0.281,1.089,0.787,2.008,1.294,2.809c0.548,0.773,1.135,1.421,1.735,1.896
						c0.577,0.51,1.162,0.834,1.628,1.129c0.472,0.284,0.878,0.438,1.132,0.599C195.278,177.351,195.41,177.454,195.395,177.506z"/>
					<path style="fill:#E8505B;" d="M191.418,208.772c-0.015,0.052-0.177,0.049-0.476-0.006c-0.294-0.067-0.748-0.133-1.289-0.346
						c-0.536-0.225-1.206-0.492-1.894-0.981c-0.708-0.452-1.425-1.113-2.102-1.941c-0.634-0.853-1.264-1.871-1.639-3.074
						c-0.397-1.191-0.637-2.523-0.649-3.933c0.017-1.396,0.127-2.929,0.895-4.41c0.728-1.416,1.866-2.655,3.238-3.583
						c1.373-0.93,2.915-1.519,4.446-1.776c1.529-0.26,3.029-0.215,4.41,0.004c2.773,0.454,5.056,1.58,6.786,2.692
						c1.74,1.12,2.978,2.229,3.799,3.019c0.815,0.799,1.206,1.299,1.137,1.377c-0.074,0.083-0.602-0.263-1.524-0.909
						c-0.926-0.636-2.243-1.589-3.976-2.538c-1.726-0.946-3.9-1.881-6.43-2.217c-1.259-0.162-2.597-0.169-3.934,0.079
						c-1.329,0.242-2.657,0.762-3.837,1.562c-1.179,0.797-2.139,1.837-2.758,2.999c-0.611,1.104-0.766,2.462-0.812,3.709
						c-0.027,1.26,0.143,2.46,0.445,3.536c0.281,1.089,0.787,2.009,1.294,2.809c0.548,0.773,1.135,1.421,1.735,1.895
						c0.577,0.51,1.162,0.834,1.628,1.13c0.472,0.284,0.878,0.438,1.132,0.599C191.302,208.616,191.434,208.72,191.418,208.772z"/>
					<path style="fill:#E8505B;" d="M187.442,240.038c-0.015,0.052-0.177,0.049-0.476-0.006c-0.294-0.067-0.748-0.133-1.288-0.346
						c-0.536-0.225-1.206-0.492-1.894-0.981c-0.708-0.451-1.425-1.113-2.102-1.941c-0.634-0.853-1.264-1.871-1.639-3.074
						c-0.397-1.191-0.637-2.523-0.649-3.933c0.016-1.396,0.127-2.929,0.895-4.41c0.728-1.416,1.866-2.655,3.238-3.583
						c1.373-0.93,2.915-1.519,4.446-1.776c1.529-0.26,3.029-0.215,4.41,0.004c2.773,0.454,5.056,1.58,6.786,2.692
						c1.74,1.12,2.979,2.229,3.799,3.019c0.815,0.799,1.206,1.299,1.136,1.377c-0.074,0.083-0.602-0.263-1.524-0.909
						c-0.926-0.636-2.243-1.589-3.975-2.538c-1.726-0.946-3.9-1.881-6.43-2.217c-1.259-0.162-2.597-0.169-3.934,0.079
						c-1.329,0.242-2.656,0.762-3.837,1.562c-1.179,0.797-2.139,1.837-2.758,2.999c-0.611,1.104-0.766,2.462-0.812,3.709
						c-0.027,1.26,0.143,2.46,0.445,3.536c0.281,1.089,0.787,2.008,1.294,2.809c0.549,0.773,1.135,1.421,1.735,1.895
						c0.577,0.51,1.162,0.834,1.628,1.13c0.472,0.284,0.878,0.438,1.132,0.599C187.326,239.882,187.458,239.986,187.442,240.038z"/>
					<path style="fill:#E8505B;" d="M183.466,271.303c-0.015,0.052-0.177,0.049-0.476-0.006c-0.294-0.067-0.748-0.133-1.289-0.346
						c-0.536-0.225-1.206-0.492-1.894-0.981c-0.708-0.452-1.425-1.113-2.102-1.941c-0.634-0.853-1.264-1.871-1.639-3.074
						c-0.398-1.191-0.637-2.523-0.649-3.933c0.017-1.396,0.127-2.929,0.895-4.41c0.728-1.416,1.866-2.655,3.238-3.583
						c1.373-0.93,2.915-1.519,4.446-1.776c1.528-0.26,3.029-0.215,4.41,0.004c2.773,0.453,5.056,1.58,6.786,2.692
						c1.74,1.12,2.979,2.229,3.799,3.019c0.815,0.799,1.206,1.299,1.137,1.377c-0.074,0.083-0.602-0.263-1.524-0.909
						c-0.926-0.636-2.243-1.588-3.975-2.538c-1.726-0.946-3.9-1.881-6.43-2.217c-1.259-0.162-2.597-0.169-3.934,0.079
						c-1.329,0.242-2.657,0.762-3.837,1.562c-1.179,0.797-2.139,1.837-2.758,2.999c-0.611,1.104-0.766,2.462-0.812,3.709
						c-0.027,1.26,0.143,2.461,0.445,3.536c0.281,1.089,0.787,2.009,1.294,2.809c0.549,0.773,1.135,1.421,1.735,1.895
						c0.577,0.51,1.162,0.834,1.628,1.13c0.472,0.284,0.878,0.438,1.132,0.599C183.35,271.148,183.481,271.252,183.466,271.303z"/>
					<path style="fill:#E8505B;" d="M179.49,302.569c-0.015,0.052-0.177,0.049-0.476-0.006c-0.294-0.067-0.748-0.133-1.289-0.346
						c-0.536-0.225-1.206-0.492-1.894-0.981c-0.708-0.452-1.425-1.113-2.102-1.941c-0.634-0.853-1.264-1.871-1.639-3.074
						c-0.397-1.191-0.637-2.522-0.649-3.933c0.016-1.396,0.127-2.929,0.895-4.41c0.728-1.416,1.866-2.655,3.238-3.583
						c1.373-0.93,2.915-1.519,4.446-1.776c1.529-0.26,3.029-0.216,4.41,0.004c2.773,0.453,5.056,1.58,6.786,2.692
						c1.74,1.12,2.978,2.229,3.799,3.019c0.815,0.799,1.206,1.299,1.137,1.377c-0.074,0.083-0.602-0.263-1.524-0.909
						c-0.926-0.636-2.243-1.589-3.976-2.538c-1.726-0.946-3.9-1.881-6.43-2.217c-1.259-0.162-2.597-0.168-3.934,0.079
						c-1.329,0.242-2.656,0.763-3.837,1.562c-1.179,0.797-2.139,1.837-2.758,2.999c-0.611,1.104-0.766,2.462-0.812,3.709
						c-0.027,1.26,0.143,2.46,0.445,3.536c0.281,1.089,0.787,2.008,1.294,2.809c0.548,0.773,1.135,1.421,1.735,1.896
						c0.577,0.51,1.162,0.834,1.628,1.129c0.472,0.284,0.878,0.438,1.132,0.599C179.374,302.414,179.505,302.517,179.49,302.569z"/>
					<path style="fill:#E8505B;" d="M175.514,333.835c-0.015,0.052-0.177,0.049-0.476-0.006c-0.294-0.067-0.748-0.133-1.288-0.346
						c-0.536-0.225-1.206-0.492-1.894-0.981c-0.708-0.451-1.425-1.113-2.102-1.941c-0.634-0.853-1.264-1.871-1.639-3.074
						c-0.397-1.191-0.637-2.523-0.649-3.933c0.017-1.396,0.127-2.929,0.895-4.41c0.728-1.416,1.866-2.655,3.238-3.583
						c1.373-0.931,2.915-1.519,4.446-1.776c1.529-0.26,3.029-0.215,4.41,0.004c2.773,0.453,5.056,1.58,6.786,2.692
						c1.74,1.12,2.979,2.229,3.799,3.019c0.815,0.799,1.206,1.299,1.136,1.377c-0.074,0.083-0.602-0.263-1.524-0.909
						c-0.926-0.636-2.243-1.588-3.975-2.538c-1.726-0.946-3.9-1.881-6.43-2.217c-1.259-0.162-2.597-0.169-3.934,0.079
						c-1.329,0.242-2.657,0.762-3.837,1.562c-1.179,0.797-2.139,1.837-2.758,2.999c-0.611,1.104-0.766,2.462-0.812,3.709
						c-0.027,1.26,0.143,2.46,0.446,3.536c0.281,1.089,0.787,2.009,1.294,2.809c0.549,0.773,1.135,1.421,1.735,1.896
						c0.577,0.51,1.162,0.834,1.628,1.129c0.472,0.284,0.878,0.438,1.132,0.599C175.398,333.679,175.529,333.783,175.514,333.835z"
						/>
				</g>
				<g style="opacity:0.2;">
					<path d="M207.323,83.709c-0.015,0.052-0.177,0.049-0.476-0.006c-0.294-0.067-0.748-0.133-1.288-0.346
						c-0.536-0.225-1.206-0.493-1.894-0.981c-0.708-0.451-1.425-1.113-2.102-1.941c-0.635-0.853-1.264-1.871-1.639-3.074
						c-0.398-1.191-0.637-2.523-0.649-3.933c0.017-1.396,0.127-2.929,0.895-4.41c0.728-1.416,1.866-2.655,3.238-3.583
						c1.373-0.93,2.915-1.519,4.446-1.776c1.528-0.26,3.029-0.215,4.41,0.004c2.773,0.454,5.056,1.58,6.786,2.692
						c1.74,1.12,2.978,2.229,3.799,3.019c0.815,0.799,1.206,1.299,1.137,1.377c-0.074,0.083-0.602-0.263-1.524-0.909
						c-0.926-0.636-2.243-1.589-3.975-2.538c-1.726-0.946-3.9-1.881-6.43-2.217c-1.259-0.162-2.597-0.169-3.934,0.079
						c-1.329,0.242-2.657,0.762-3.837,1.562c-1.179,0.797-2.139,1.837-2.758,2.999c-0.611,1.104-0.766,2.462-0.812,3.709
						c-0.027,1.26,0.143,2.46,0.445,3.536c0.281,1.089,0.787,2.009,1.294,2.809c0.548,0.773,1.135,1.421,1.735,1.896
						c0.577,0.51,1.162,0.834,1.628,1.129c0.472,0.284,0.878,0.438,1.132,0.599C207.206,83.553,207.338,83.657,207.323,83.709z"/>
					<path d="M203.347,114.975c-0.015,0.052-0.177,0.049-0.476-0.006c-0.294-0.067-0.748-0.133-1.288-0.346
						c-0.536-0.225-1.206-0.492-1.894-0.981c-0.708-0.452-1.425-1.113-2.102-1.941c-0.634-0.853-1.264-1.871-1.639-3.074
						c-0.397-1.191-0.637-2.523-0.649-3.933c0.016-1.396,0.127-2.929,0.895-4.41c0.728-1.416,1.866-2.655,3.238-3.583
						c1.373-0.93,2.915-1.519,4.446-1.776c1.529-0.26,3.029-0.215,4.41,0.004c2.773,0.454,5.056,1.58,6.786,2.692
						c1.74,1.12,2.978,2.229,3.799,3.019c0.815,0.799,1.206,1.299,1.136,1.377c-0.073,0.083-0.602-0.263-1.524-0.909
						c-0.926-0.636-2.243-1.588-3.976-2.538c-1.726-0.946-3.9-1.881-6.43-2.217c-1.259-0.162-2.597-0.169-3.934,0.079
						c-1.329,0.242-2.657,0.762-3.837,1.562c-1.179,0.797-2.139,1.837-2.758,2.999c-0.611,1.104-0.766,2.462-0.812,3.709
						c-0.027,1.26,0.143,2.461,0.446,3.536c0.281,1.089,0.787,2.009,1.294,2.809c0.548,0.773,1.135,1.421,1.735,1.896
						c0.577,0.51,1.162,0.834,1.628,1.13c0.472,0.284,0.878,0.438,1.132,0.599C203.23,114.819,203.362,114.923,203.347,114.975z"/>
					<path d="M199.371,146.24c-0.015,0.052-0.177,0.049-0.476-0.006c-0.294-0.067-0.748-0.133-1.288-0.346
						c-0.536-0.225-1.206-0.492-1.894-0.981c-0.708-0.452-1.425-1.113-2.102-1.941c-0.634-0.853-1.264-1.871-1.639-3.074
						c-0.398-1.191-0.637-2.523-0.649-3.933c0.017-1.396,0.127-2.929,0.895-4.41c0.728-1.416,1.866-2.655,3.238-3.583
						c1.373-0.93,2.915-1.519,4.446-1.776c1.529-0.26,3.029-0.215,4.41,0.004c2.773,0.453,5.056,1.58,6.786,2.692
						c1.74,1.12,2.978,2.229,3.799,3.019c0.815,0.799,1.206,1.299,1.136,1.377c-0.074,0.083-0.602-0.263-1.524-0.908
						c-0.926-0.636-2.243-1.589-3.975-2.538c-1.726-0.946-3.9-1.881-6.43-2.217c-1.259-0.162-2.597-0.168-3.934,0.079
						c-1.329,0.242-2.656,0.762-3.837,1.562c-1.179,0.797-2.139,1.837-2.758,2.999c-0.611,1.104-0.766,2.462-0.812,3.709
						c-0.027,1.26,0.143,2.461,0.445,3.536c0.281,1.089,0.787,2.008,1.294,2.809c0.549,0.773,1.135,1.421,1.735,1.895
						c0.577,0.51,1.162,0.834,1.628,1.13c0.472,0.284,0.878,0.438,1.132,0.599C199.254,146.085,199.386,146.189,199.371,146.24z"/>
					<path d="M195.395,177.506c-0.015,0.052-0.177,0.049-0.476-0.006c-0.294-0.067-0.748-0.133-1.288-0.346
						c-0.536-0.225-1.206-0.493-1.894-0.981c-0.708-0.452-1.425-1.113-2.102-1.941c-0.635-0.853-1.264-1.871-1.639-3.074
						c-0.398-1.191-0.637-2.523-0.649-3.933c0.017-1.396,0.127-2.929,0.895-4.41c0.728-1.416,1.866-2.655,3.238-3.583
						c1.373-0.93,2.915-1.519,4.446-1.776c1.528-0.26,3.029-0.215,4.41,0.004c2.773,0.453,5.056,1.58,6.786,2.692
						c1.74,1.12,2.978,2.229,3.799,3.019c0.815,0.799,1.206,1.299,1.137,1.377c-0.074,0.083-0.602-0.263-1.524-0.909
						c-0.926-0.636-2.243-1.588-3.975-2.538c-1.726-0.946-3.9-1.881-6.43-2.217c-1.259-0.162-2.597-0.169-3.934,0.079
						c-1.329,0.242-2.657,0.762-3.837,1.562c-1.179,0.797-2.139,1.837-2.758,2.999c-0.611,1.104-0.766,2.462-0.812,3.709
						c-0.027,1.26,0.143,2.46,0.446,3.536c0.281,1.089,0.787,2.008,1.294,2.809c0.548,0.773,1.135,1.421,1.735,1.896
						c0.577,0.51,1.162,0.834,1.628,1.129c0.472,0.284,0.878,0.438,1.132,0.599C195.278,177.351,195.41,177.454,195.395,177.506z"/>
					<path d="M191.418,208.772c-0.015,0.052-0.177,0.049-0.476-0.006c-0.294-0.067-0.748-0.133-1.289-0.346
						c-0.536-0.225-1.206-0.492-1.894-0.981c-0.708-0.452-1.425-1.113-2.102-1.941c-0.634-0.853-1.264-1.871-1.639-3.074
						c-0.397-1.191-0.637-2.523-0.649-3.933c0.017-1.396,0.127-2.929,0.895-4.41c0.728-1.416,1.866-2.655,3.238-3.583
						c1.373-0.93,2.915-1.519,4.446-1.776c1.529-0.26,3.029-0.215,4.41,0.004c2.773,0.454,5.056,1.58,6.786,2.692
						c1.74,1.12,2.978,2.229,3.799,3.019c0.815,0.799,1.206,1.299,1.137,1.377c-0.074,0.083-0.602-0.263-1.524-0.909
						c-0.926-0.636-2.243-1.589-3.976-2.538c-1.726-0.946-3.9-1.881-6.43-2.217c-1.259-0.162-2.597-0.169-3.934,0.079
						c-1.329,0.242-2.657,0.762-3.837,1.562c-1.179,0.797-2.139,1.837-2.758,2.999c-0.611,1.104-0.766,2.462-0.812,3.709
						c-0.027,1.26,0.143,2.46,0.445,3.536c0.281,1.089,0.787,2.009,1.294,2.809c0.548,0.773,1.135,1.421,1.735,1.895
						c0.577,0.51,1.162,0.834,1.628,1.13c0.472,0.284,0.878,0.438,1.132,0.599C191.302,208.616,191.434,208.72,191.418,208.772z"/>
					<path d="M187.442,240.038c-0.015,0.052-0.177,0.049-0.476-0.006c-0.294-0.067-0.748-0.133-1.288-0.346
						c-0.536-0.225-1.206-0.492-1.894-0.981c-0.708-0.451-1.425-1.113-2.102-1.941c-0.634-0.853-1.264-1.871-1.639-3.074
						c-0.397-1.191-0.637-2.523-0.649-3.933c0.016-1.396,0.127-2.929,0.895-4.41c0.728-1.416,1.866-2.655,3.238-3.583
						c1.373-0.93,2.915-1.519,4.446-1.776c1.529-0.26,3.029-0.215,4.41,0.004c2.773,0.454,5.056,1.58,6.786,2.692
						c1.74,1.12,2.979,2.229,3.799,3.019c0.815,0.799,1.206,1.299,1.136,1.377c-0.074,0.083-0.602-0.263-1.524-0.909
						c-0.926-0.636-2.243-1.589-3.975-2.538c-1.726-0.946-3.9-1.881-6.43-2.217c-1.259-0.162-2.597-0.169-3.934,0.079
						c-1.329,0.242-2.656,0.762-3.837,1.562c-1.179,0.797-2.139,1.837-2.758,2.999c-0.611,1.104-0.766,2.462-0.812,3.709
						c-0.027,1.26,0.143,2.46,0.445,3.536c0.281,1.089,0.787,2.008,1.294,2.809c0.549,0.773,1.135,1.421,1.735,1.895
						c0.577,0.51,1.162,0.834,1.628,1.13c0.472,0.284,0.878,0.438,1.132,0.599C187.326,239.882,187.458,239.986,187.442,240.038z"/>
					<path d="M183.466,271.303c-0.015,0.052-0.177,0.049-0.476-0.006c-0.294-0.067-0.748-0.133-1.289-0.346
						c-0.536-0.225-1.206-0.492-1.894-0.981c-0.708-0.452-1.425-1.113-2.102-1.941c-0.634-0.853-1.264-1.871-1.639-3.074
						c-0.398-1.191-0.637-2.523-0.649-3.933c0.017-1.396,0.127-2.929,0.895-4.41c0.728-1.416,1.866-2.655,3.238-3.583
						c1.373-0.93,2.915-1.519,4.446-1.776c1.528-0.26,3.029-0.215,4.41,0.004c2.773,0.453,5.056,1.58,6.786,2.692
						c1.74,1.12,2.979,2.229,3.799,3.019c0.815,0.799,1.206,1.299,1.137,1.377c-0.074,0.083-0.602-0.263-1.524-0.909
						c-0.926-0.636-2.243-1.588-3.975-2.538c-1.726-0.946-3.9-1.881-6.43-2.217c-1.259-0.162-2.597-0.169-3.934,0.079
						c-1.329,0.242-2.657,0.762-3.837,1.562c-1.179,0.797-2.139,1.837-2.758,2.999c-0.611,1.104-0.766,2.462-0.812,3.709
						c-0.027,1.26,0.143,2.461,0.445,3.536c0.281,1.089,0.787,2.009,1.294,2.809c0.549,0.773,1.135,1.421,1.735,1.895
						c0.577,0.51,1.162,0.834,1.628,1.13c0.472,0.284,0.878,0.438,1.132,0.599C183.35,271.148,183.481,271.252,183.466,271.303z"/>
					<path d="M179.49,302.569c-0.015,0.052-0.177,0.049-0.476-0.006c-0.294-0.067-0.748-0.133-1.289-0.346
						c-0.536-0.225-1.206-0.492-1.894-0.981c-0.708-0.452-1.425-1.113-2.102-1.941c-0.634-0.853-1.264-1.871-1.639-3.074
						c-0.397-1.191-0.637-2.522-0.649-3.933c0.016-1.396,0.127-2.929,0.895-4.41c0.728-1.416,1.866-2.655,3.238-3.583
						c1.373-0.93,2.915-1.519,4.446-1.776c1.529-0.26,3.029-0.216,4.41,0.004c2.773,0.453,5.056,1.58,6.786,2.692
						c1.74,1.12,2.978,2.229,3.799,3.019c0.815,0.799,1.206,1.299,1.137,1.377c-0.074,0.083-0.602-0.263-1.524-0.909
						c-0.926-0.636-2.243-1.589-3.976-2.538c-1.726-0.946-3.9-1.881-6.43-2.217c-1.259-0.162-2.597-0.168-3.934,0.079
						c-1.329,0.242-2.656,0.763-3.837,1.562c-1.179,0.797-2.139,1.837-2.758,2.999c-0.611,1.104-0.766,2.462-0.812,3.709
						c-0.027,1.26,0.143,2.46,0.445,3.536c0.281,1.089,0.787,2.008,1.294,2.809c0.548,0.773,1.135,1.421,1.735,1.896
						c0.577,0.51,1.162,0.834,1.628,1.129c0.472,0.284,0.878,0.438,1.132,0.599C179.374,302.414,179.505,302.517,179.49,302.569z"/>
					<path d="M175.514,333.835c-0.015,0.052-0.177,0.049-0.476-0.006c-0.294-0.067-0.748-0.133-1.288-0.346
						c-0.536-0.225-1.206-0.492-1.894-0.981c-0.708-0.451-1.425-1.113-2.102-1.941c-0.634-0.853-1.264-1.871-1.639-3.074
						c-0.397-1.191-0.637-2.523-0.649-3.933c0.017-1.396,0.127-2.929,0.895-4.41c0.728-1.416,1.866-2.655,3.238-3.583
						c1.373-0.931,2.915-1.519,4.446-1.776c1.529-0.26,3.029-0.215,4.41,0.004c2.773,0.453,5.056,1.58,6.786,2.692
						c1.74,1.12,2.979,2.229,3.799,3.019c0.815,0.799,1.206,1.299,1.136,1.377c-0.074,0.083-0.602-0.263-1.524-0.909
						c-0.926-0.636-2.243-1.588-3.975-2.538c-1.726-0.946-3.9-1.881-6.43-2.217c-1.259-0.162-2.597-0.169-3.934,0.079
						c-1.329,0.242-2.657,0.762-3.837,1.562c-1.179,0.797-2.139,1.837-2.758,2.999c-0.611,1.104-0.766,2.462-0.812,3.709
						c-0.027,1.26,0.143,2.46,0.446,3.536c0.281,1.089,0.787,2.009,1.294,2.809c0.549,0.773,1.135,1.421,1.735,1.896
						c0.577,0.51,1.162,0.834,1.628,1.129c0.472,0.284,0.878,0.438,1.132,0.599C175.398,333.679,175.529,333.783,175.514,333.835z"
						/>
				</g>
			</g>
			
				<rect x="423.605" y="112.823" transform="matrix(0.1262 -0.992 0.992 0.1262 252.525 536.6473)" style="fill:#E8505B;" width="14.529" height="24.329"/>
			<g>
				<path style="fill:#263238;" d="M400.77,127.109c-0.001,0.009-0.137,0-0.4-0.026c-0.288-0.032-0.675-0.074-1.168-0.129
					c-1.054-0.128-2.559-0.311-4.485-0.545c-3.92-0.5-9.544-1.217-16.482-2.102c-13.934-1.828-33.139-4.347-54.351-7.13
					c-5.307-0.705-10.487-1.394-15.491-2.059c-5.003-0.654-9.83-1.341-14.426-1.897c-4.593-0.542-9.008-0.733-13.075-0.138
					c-4.055,0.568-7.885,1.436-11.441,1.011c-1.763-0.203-3.406-0.74-4.811-1.491c-1.414-0.74-2.644-1.591-3.823-2.324
					c-1.175-0.739-2.303-1.377-3.406-1.794c-1.104-0.414-2.187-0.571-3.154-0.59c-1.951-0.029-3.407,0.654-4.15,1.342
					c-0.76,0.687-0.969,1.217-1.007,1.19c-0.008-0.004,0.056-0.124,0.189-0.355c0.061-0.12,0.155-0.256,0.282-0.407
					c0.116-0.162,0.269-0.332,0.465-0.506c0.738-0.729,2.224-1.465,4.221-1.466c0.99,0.003,2.1,0.148,3.239,0.559
					c1.137,0.415,2.285,1.049,3.474,1.78c1.193,0.726,2.427,1.563,3.822,2.278c1.387,0.726,2.976,1.231,4.701,1.419
					c3.473,0.394,7.259-0.48,11.341-1.073c4.11-0.62,8.579-0.442,13.188,0.089c4.615,0.545,9.431,1.221,14.439,1.868
					c5.004,0.662,10.185,1.347,15.492,2.049c21.204,2.841,40.402,5.414,54.331,7.281c6.929,0.954,12.545,1.727,16.46,2.266
					c1.92,0.276,3.421,0.491,4.472,0.642c0.49,0.076,0.875,0.136,1.161,0.18C400.638,127.074,400.771,127.1,400.77,127.109z"/>
			</g>
			<g>
				<path style="fill:#263238;" d="M396.544,141.657c-0.001,0.009-0.128,0.002-0.375-0.021c-0.272-0.028-0.633-0.065-1.092-0.113
					c-0.989-0.114-2.397-0.277-4.194-0.484c-3.67-0.447-8.928-1.087-15.414-1.877c-13.035-1.638-30.993-3.895-50.829-6.387
					c-19.835-2.552-37.789-4.863-50.818-6.539c-6.477-0.859-11.728-1.555-15.392-2.041c-1.792-0.249-3.195-0.444-4.182-0.581
					c-0.456-0.069-0.815-0.123-1.086-0.164c-0.244-0.04-0.369-0.065-0.368-0.074c0.001-0.009,0.128-0.002,0.374,0.021
					c0.272,0.028,0.633,0.065,1.092,0.113c0.989,0.114,2.396,0.277,4.194,0.484c3.669,0.447,8.928,1.087,15.413,1.877
					c13.034,1.638,30.995,3.895,50.837,6.388c19.828,2.552,37.78,4.862,50.81,6.538c6.477,0.859,11.728,1.555,15.393,2.041
					c1.793,0.249,3.196,0.444,4.182,0.581c0.456,0.069,0.816,0.123,1.086,0.164C396.421,141.623,396.545,141.648,396.544,141.657z"
					/>
			</g>
			<g>
				<path style="fill:#263238;" d="M379.464,225.615c-0.001,0.009-0.122,0.003-0.356-0.018c-0.261-0.027-0.604-0.062-1.039-0.106
					c-0.943-0.108-2.28-0.262-3.987-0.458c-3.491-0.424-8.489-1.031-14.652-1.78c-12.392-1.556-29.461-3.7-48.314-6.067
					c-18.852-2.428-35.916-4.625-48.303-6.22c-6.154-0.818-11.144-1.481-14.63-1.944c-1.701-0.237-3.034-0.423-3.974-0.555
					c-0.432-0.066-0.773-0.118-1.032-0.157c-0.232-0.038-0.35-0.062-0.349-0.071c0.001-0.009,0.122-0.003,0.356,0.018
					c0.26,0.027,0.604,0.062,1.038,0.106c0.943,0.108,2.28,0.262,3.987,0.458c3.491,0.424,8.488,1.031,14.651,1.78
					c12.392,1.556,29.463,3.7,48.322,6.068c18.846,2.427,35.908,4.624,48.295,6.219c6.154,0.818,11.145,1.481,14.631,1.944
					c1.702,0.238,3.035,0.423,3.975,0.555c0.432,0.066,0.773,0.118,1.032,0.157C379.347,225.582,379.465,225.606,379.464,225.615z"
					/>
			</g>
			<g>
				<path style="fill:#263238;" d="M375.851,254.022c-0.001,0.009-0.122,0.003-0.356-0.018c-0.261-0.027-0.604-0.062-1.039-0.106
					c-0.943-0.108-2.28-0.262-3.987-0.458c-3.491-0.424-8.489-1.031-14.652-1.78c-12.392-1.556-29.461-3.7-48.314-6.067
					c-18.852-2.428-35.916-4.625-48.303-6.22c-6.154-0.818-11.144-1.481-14.63-1.944c-1.701-0.237-3.034-0.423-3.974-0.555
					c-0.432-0.066-0.773-0.118-1.032-0.157c-0.232-0.038-0.35-0.062-0.349-0.071c0.001-0.009,0.122-0.003,0.356,0.018
					c0.26,0.027,0.604,0.062,1.038,0.106c0.943,0.108,2.28,0.262,3.987,0.458c3.491,0.424,8.488,1.031,14.651,1.78
					c12.392,1.556,29.463,3.7,48.322,6.068c18.846,2.427,35.908,4.624,48.295,6.219c6.154,0.818,11.145,1.481,14.631,1.944
					c1.702,0.238,3.035,0.424,3.975,0.555c0.432,0.066,0.773,0.118,1.032,0.157C375.734,253.989,375.853,254.013,375.851,254.022z"
					/>
			</g>
			<g>
				<path style="fill:#263238;" d="M374.848,239.17c-0.001,0.009-0.119,0.003-0.349-0.018c-0.256-0.026-0.592-0.06-1.017-0.103
					c-0.925-0.106-2.234-0.256-3.904-0.447c-3.42-0.415-8.313-1.009-14.347-1.741c-12.135-1.523-28.848-3.622-47.308-5.939
					c-18.459-2.377-35.166-4.529-47.297-6.092c-6.025-0.801-10.911-1.451-14.325-1.905c-1.665-0.233-2.97-0.415-3.891-0.544
					c-0.422-0.065-0.756-0.116-1.01-0.154c-0.227-0.038-0.343-0.062-0.342-0.07c0.001-0.009,0.119-0.003,0.349,0.018
					c0.256,0.026,0.592,0.06,1.017,0.103c0.924,0.106,2.234,0.256,3.904,0.447c3.42,0.415,8.313,1.009,14.346,1.741
					c12.135,1.524,28.85,3.622,47.316,5.94c18.453,2.377,35.158,4.528,47.289,6.091c6.025,0.801,10.911,1.451,14.326,1.905
					c1.665,0.233,2.97,0.415,3.892,0.544c0.422,0.065,0.756,0.116,1.01,0.155C374.733,239.137,374.849,239.161,374.848,239.17z"/>
			</g>
			<g>
				<path style="fill:#263238;" d="M298.964,257.113c-0.002,0.018-0.219,0.008-0.63-0.027c-0.465-0.046-1.06-0.106-1.794-0.179
					c-1.621-0.186-3.854-0.441-6.586-0.754c-5.613-0.694-13.257-1.639-21.702-2.683c-8.441-1.103-16.078-2.102-21.686-2.835
					c-2.722-0.381-4.948-0.692-6.564-0.918c-0.729-0.113-1.319-0.204-1.781-0.276c-0.406-0.069-0.619-0.114-0.617-0.131
					c0.002-0.018,0.219-0.008,0.63,0.027c0.465,0.046,1.06,0.106,1.794,0.179c1.621,0.186,3.854,0.441,6.585,0.754
					c5.613,0.694,13.257,1.639,21.706,2.683c8.438,1.103,16.075,2.101,21.683,2.834c2.722,0.381,4.949,0.692,6.565,0.918
					c0.729,0.113,1.32,0.204,1.782,0.276C298.754,257.05,298.966,257.095,298.964,257.113z"/>
			</g>
		</g>
		<g>
			<path style="fill:#263238;" d="M271.175,138.425c-0.018,0.143-5.164-0.394-11.491-1.199c-6.33-0.805-11.445-1.573-11.427-1.716
				c0.018-0.143,5.163,0.394,11.493,1.199C266.077,137.515,271.193,138.283,271.175,138.425z"/>
		</g>
		<g>
			<path style="fill:#263238;" d="M381.439,210.084c-0.001,0.009-0.118,0.003-0.344-0.016c-0.253-0.025-0.584-0.058-1.003-0.099
				c-0.88-0.101-2.178-0.237-3.854-0.377c-1.674-0.147-3.726-0.305-6.11-0.443c-2.383-0.152-5.101-0.277-8.105-0.409
				c-6.008-0.268-13.169-0.454-21.116-0.917c-3.972-0.241-8.142-0.544-12.445-1.1c-4.297-0.583-8.715-1.291-13.257-1.962
				c-18.138-2.775-34.556-5.287-46.476-7.111c-5.918-0.934-10.718-1.691-14.074-2.221c-1.635-0.269-2.916-0.48-3.822-0.63
				c-0.414-0.074-0.742-0.132-0.992-0.177c-0.223-0.043-0.337-0.069-0.335-0.078c0.001-0.009,0.118,0,0.343,0.025
				c0.252,0.032,0.583,0.073,1,0.126c0.91,0.126,2.196,0.305,3.837,0.533c3.362,0.49,8.17,1.192,14.099,2.057
				c11.926,1.785,28.351,4.243,46.498,6.96c4.538,0.67,8.968,1.384,13.247,1.972c4.281,0.56,8.443,0.873,12.408,1.127
				c7.933,0.489,15.095,0.713,21.103,1.028c3.005,0.155,5.723,0.306,8.107,0.486c2.385,0.166,4.437,0.354,6.11,0.532
				c1.675,0.172,2.971,0.34,3.847,0.475c0.416,0.063,0.745,0.112,0.997,0.15C381.326,210.052,381.44,210.075,381.439,210.084z"/>
		</g>
	</g>
</g>
<g id="Character">
	<g>
		<g>
			<path style="fill:#E0E0E0;" d="M126.02,295.442c0,0,122.371-120.998,136.288-140.169l-8.376-7.706L115.936,284.806
				L126.02,295.442z"/>
			<path style="fill:#E8505B;" d="M88.712,320.969c5.507,0.105,20.384-2.02,41.34-23.636l18.492-16.685l-14.149-13.613
				c0,0,28.2-26.123,26.851-27.552c-1.349-1.429-16.332,12.479-28.176,22.729c-10.775,9.324-46.724,42.206-47.557,55.262
				C85.394,319.336,86.847,320.934,88.712,320.969z"/>
			<path style="opacity:0.2;" d="M161.246,239.483c-1.349-1.428-16.332,12.479-28.176,22.729c-0.933,0.808-2.066,1.803-3.338,2.936
				l14.05,13.462l-18.457,16.723c-18.977,19.657-32.981,23.25-39.525,23.676c0.498,1.125,1.596,1.935,2.912,1.96
				c5.507,0.105,20.384-2.02,41.34-23.636l18.492-16.685l-14.148-13.613C134.395,267.035,162.595,240.912,161.246,239.483z"/>
			<polygon style="fill:#263238;" points="150.505,263.64 246.952,166.702 242.868,162.945 146.584,259.502 			"/>
			<path style="fill:#455A64;" d="M262.219,155.4c0,0,9.148-14.414,6.593-15.17c-2.555-0.756-14.881,7.337-14.881,7.337l2.356,2.435
				l-13.952,13.477l4.617,3.222l12.74-13.457L262.219,155.4z"/>
		</g>
		<g>
			<g>
				<g>
					<g>
						<g>
							<g>
								<path style="fill:#FFBE9D;" d="M168.217,220.984L168.217,220.984c5.088,0.391,9.48-3.526,9.677-8.625
									c0.188-4.897,0.353-9.847,0.353-9.847s7.42-0.695,7.958-8.039c0.538-7.344,0.293-24.297,0.293-24.297l0,0
									c-8.285-4.174-18.179-3.538-25.861,1.663l-1.14,0.772l0.416,39.5C159.96,216.774,163.566,220.626,168.217,220.984z"/>
							</g>
						</g>
					</g>
					<path style="fill:#E8505B;" d="M167.879,160.641c-4.468-0.134-8.522,2.785-10.596,6.378c-2.074,3.593-2.525,7.761-2.717,11.814
						c-0.377,7.949,0.094,15.91,0.564,23.855c0.035,0.591,0.089,1.228,0.51,1.681c0.461,0.495,1.23,0.629,1.936,0.727
						c13.53,1.876,27.371,1.897,40.908,0.062c0.893-1.618-0.36-3.538-1.809-4.781c-1.448-1.244-3.238-2.372-3.761-4.118
						c-0.822-2.746,1.907-5.69,0.842-8.367c-0.8-2.011-3.445-3.001-4.375-4.966c-1.562-3.3,2.468-7.289,0.68-10.494
						c-0.932-1.671-3.112-2.41-4.491-3.803c-1.218-1.232-1.741-2.904-2.797-4.253c-1.654-2.114-4.498-3.252-7.332-3.58
						C172.61,160.469,170.704,160.257,167.879,160.641"/>
					<path style="fill:#E8505B;" d="M157.412,169.038c-1.897,0.925-2.717,3.189-2.992,5.282c-0.275,2.092-0.201,4.286-1.071,6.209
						c-0.929,2.053-2.864,3.619-3.375,5.814c-0.664,2.854,1.217,6.217-0.481,8.605c-1.095,1.538-3.243,1.923-4.59,3.245
						c-1.863,1.828-1.698,4.823-1.4,7.416c8.173-0.073,16.346-0.146,24.519-0.219"/>
				</g>
				<path style="fill:#E8505B;" d="M162.817,165.144c-0.439-2.375-2.106-4.489-4.314-5.468c-2.208-0.979-4.894-0.797-6.949,0.472
					c-3.918,2.419-5.302,8.195-9.708,9.535c-1.147,0.349-2.56,0.451-3.163,1.487c-0.629,1.079,0.153,2.538,1.28,3.079
					c1.126,0.541,2.443,0.425,3.686,0.297c-1.439-0.318-2.846,1.27-2.558,2.715c0.288,1.446,1.917,2.387,3.372,2.151
					c1.455-0.236,2.632-1.444,3.103-2.841c-0.532,1.541-1.063,3.082-1.594,4.624c3.049,0.535,5.648-2.21,7.194-4.893
					c1.546-2.682,2.947-5.817,5.802-7.013c1.269-0.531,2.743-0.627,3.834-1.465c1.091-0.838,1.306-2.939-0.008-3.345"/>
				<g>
					<path style="fill:#263238;" d="M164.089,165.23c0.026-0.048,0.572,0.222,1.074,1.025c0.497,0.773,0.876,2.167,0.343,3.563
						c-0.553,1.389-1.776,2.158-2.665,2.39c-0.914,0.251-1.497,0.08-1.485,0.027c0.001-0.088,0.567-0.06,1.367-0.376
						c0.786-0.298,1.824-1.035,2.298-2.23c0.461-1.201,0.196-2.445-0.18-3.197C164.465,165.658,164.03,165.296,164.089,165.23z"/>
				</g>
			</g>
			<polygon style="fill:#FFBE9D;" points="190.679,398.26 203.248,456.233 219.83,455.846 212.484,393.132 			"/>
			<path style="fill:#FFBE9D;" d="M131.552,236.725c0,0-0.282,0.404-0.739,1.13c-2.664,4.23-10.162,19.404-3.844,29.554
				l15.857-13.94l2.679-6.263"/>
			<polygon style="fill:#FFBE9D;" points="140.693,351.443 135.353,450.424 151.674,454.368 163.909,353.53 			"/>
			<g>
				<g>
					<g>
						<path style="fill:#455A64;" d="M212.785,226.97l-23.006,5.551l-1.328,17.747l3.203,10.119
							c-0.039,0.367,5.173,17.386,5.173,17.386l1.614,5.628l-52.58,0.547c-0.176-6.145,3.912-12.204,3.912-12.204
							c2.992-5.074,2.218-12.733,0.825-18.548c-0.441-1.84-1.025-4.873-1.258-6.751l-0.04-0.324l-3.009,5.293l-18.256-13.179
							c5.928-11.434,14.626-22.997,15.674-23.857c6.498-5.337,13.547-4.967,13.547-4.967l22.7,0.193c0,0,17.87-2.238,28.289-3.998
							L212.785,226.97z"/>
					</g>
				</g>
				<g>
					<path style="fill:#263238;" d="M208.691,208.158c0.031,0.053-0.969,0.436-2.375,1.691c-0.708,0.618-1.497,1.458-2.41,2.443
						c-0.908,0.986-1.986,2.105-3.362,3.118c-2.713,2.051-6.574,3.767-11.097,4.13c-2.251,0.16-4.656-0.003-7.032-0.663
						c-2.376-0.645-4.68-1.702-7.136-2.397c-1.227-0.348-2.467-0.578-3.696-0.615c-1.231-0.024-2.441,0.144-3.605,0.423
						c-2.329,0.585-4.445,1.61-6.453,2.576c-2.011,0.971-3.927,1.924-5.834,2.559c-1.898,0.655-3.771,0.975-5.48,0.982
						c-3.433,0.022-6.117-0.93-7.799-1.787c-0.85-0.427-1.471-0.829-1.88-1.116c-0.403-0.296-0.608-0.458-0.598-0.472
						c0.033-0.052,0.858,0.612,2.565,1.405c1.688,0.792,4.346,1.67,7.704,1.601c1.674-0.031,3.49-0.362,5.346-1.022
						c1.865-0.64,3.757-1.599,5.764-2.582c2.007-0.979,4.142-2.029,6.541-2.639c1.199-0.291,2.457-0.469,3.742-0.446
						c1.284,0.037,2.57,0.276,3.823,0.632c2.51,0.712,4.808,1.771,7.131,2.407c2.314,0.65,4.659,0.819,6.861,0.676
						c4.424-0.329,8.223-1.971,10.914-3.948c1.365-0.975,2.44-2.054,3.37-3.022c0.932-0.965,1.752-1.794,2.49-2.396
						c0.731-0.61,1.363-1.005,1.808-1.234c0.219-0.122,0.397-0.191,0.515-0.242C208.625,208.171,208.688,208.15,208.691,208.158z"/>
				</g>
				<g>
					<path style="fill:#263238;" d="M188.623,238.013c0,0-0.124,0.187-0.458,0.441c-0.329,0.256-0.888,0.568-1.677,0.725
						c-0.786,0.157-1.79,0.141-2.889-0.148c-1.109-0.273-2.264-0.901-3.439-1.673c-1.184-0.764-2.412-1.703-3.889-2.374
						c-1.477-0.655-3.214-1.001-5.04-0.919c-3.686,0.114-7.518,1.665-11.437,3.36c-1.984,0.821-3.952,1.589-5.942,2.067
						c-1.98,0.494-3.99,0.678-5.87,0.419c-1.884-0.244-3.583-0.964-4.994-1.857c-1.42-0.893-2.584-1.944-3.548-2.981
						c-1.916-2.093-3.101-4.061-3.927-5.394c-0.407-0.673-0.712-1.202-0.914-1.563c-0.202-0.361-0.3-0.556-0.285-0.565
						c0.015-0.009,0.144,0.167,0.374,0.51c0.258,0.391,0.588,0.891,0.996,1.51c0.876,1.297,2.105,3.224,4.024,5.25
						c0.963,1.003,2.118,2.015,3.507,2.867c1.383,0.852,3.02,1.527,4.83,1.748c1.808,0.236,3.749,0.051,5.685-0.439
						c1.944-0.474,3.888-1.235,5.863-2.052c3.909-1.688,7.817-3.266,11.624-3.358c1.886-0.072,3.702,0.304,5.233,1.005
						c1.531,0.718,2.753,1.685,3.913,2.46c1.155,0.786,2.252,1.41,3.313,1.699c1.053,0.306,2.017,0.35,2.776,0.23
						C187.998,238.721,188.586,237.938,188.623,238.013z"/>
				</g>
				<g>
					<path style="fill:#263238;" d="M189.393,255.002c0.013,0.012-0.076,0.122-0.26,0.323c-0.176,0.209-0.48,0.473-0.896,0.784
						c-0.838,0.605-2.252,1.261-4.111,1.449c-1.849,0.194-4.098-0.051-6.41-0.868c-2.316-0.79-4.681-2.046-7.248-3.09
						c-2.559-1.068-5.167-1.602-7.558-1.465c-2.385,0.122-4.488,0.731-6.132,1.479c-3.311,1.527-4.791,3.361-4.872,3.252
						c-0.013-0.012,0.075-0.124,0.256-0.325c0.18-0.202,0.449-0.499,0.837-0.838c0.76-0.692,1.957-1.612,3.623-2.423
						c1.66-0.808,3.808-1.473,6.263-1.625c2.456-0.171,5.184,0.376,7.777,1.461c2.605,1.061,4.95,2.323,7.213,3.121
						c2.245,0.821,4.423,1.095,6.217,0.953c1.802-0.137,3.182-0.714,4.031-1.251C188.973,255.393,189.353,254.961,189.393,255.002z"
						/>
				</g>
				<g>
					<path style="fill:#263238;" d="M195.02,271.335c-0.033,0.044-0.534-0.369-1.562-0.894c-1.028-0.516-2.625-1.082-4.682-1.244
						c-2.052-0.174-4.528,0.064-7.162,0.781c-2.646,0.698-5.453,1.831-8.497,2.79c-3.037,0.988-6.108,1.467-8.886,1.399
						c-2.781-0.051-5.26-0.546-7.253-1.187c-2-0.635-3.529-1.389-4.544-1.967c-0.513-0.281-0.89-0.534-1.145-0.706
						c-0.255-0.172-0.384-0.269-0.374-0.285c0.026-0.042,0.576,0.296,1.615,0.812c1.036,0.519,2.57,1.213,4.556,1.794
						c1.979,0.587,4.423,1.036,7.152,1.06c2.732,0.039,5.715-0.439,8.724-1.417c3.015-0.948,5.841-2.074,8.53-2.757
						c2.685-0.704,5.222-0.91,7.318-0.684c2.102,0.213,3.726,0.85,4.743,1.432c0.507,0.298,0.885,0.553,1.119,0.756
						C194.911,271.213,195.031,271.321,195.02,271.335z"/>
				</g>
			</g>
			<g>
				<polygon style="fill:#263238;" points="145.942,281.969 135.863,397.556 160.767,397.704 173.073,305.068 189.137,398.544 
					214.055,393.945 198.785,282.942 				"/>
				<g>
					<g>
						<path style="fill:#455A64;" d="M190.911,302.044c0.017,0.143-8.521,1.272-19.068,2.523
							c-10.551,1.251-19.115,2.149-19.132,2.006c-0.017-0.143,8.52-1.272,19.07-2.523
							C182.328,302.8,190.894,301.901,190.911,302.044z"/>
					</g>
				</g>
			</g>
			<g>
				<g>
					<g>
						<g>
							<g>
								<path style="fill:#E8505B;" d="M222.094,457.544l-0.07-1.854l-18.775,0.543l0.162,6.112l1.161,0.038
									c5.166,0.128,26.277,0.311,29.695-0.753C238.078,460.443,222.094,457.544,222.094,457.544z"/>
							</g>
						</g>
						<g style="opacity:0.6;">
							<g>
								<path style="fill:#FFFFFF;" d="M210.183,462.027c-0.311-1.445-1.222-2.771-2.5-3.641c-1.279-0.871-2.833-1.306-4.408-1.146
									l0.147,4.857L210.183,462.027z"/>
							</g>
						</g>
					</g>
					<g style="opacity:0.6;">
						<g>
							<path style="fill:#FFFFFF;" d="M229.912,459.218c0,0,5.613,1.343,4.945,2.214c-0.668,0.871-22.009,1.432-31.446,0.914
								l0.018-0.389l24.899-0.457C228.328,461.499,228.825,459.289,229.912,459.218z"/>
						</g>
					</g>
					<g>
						<g>
							<g>
								<path style="fill:#263238;" d="M203.134,461.953c0,0.007,0.111,0.015,0.322,0.024c0.278,0.008,0.581,0.017,0.925,0.028
									c0.924,0.013,2.061,0.028,3.401,0.047c2.872,0.02,6.841,0,11.222-0.112c4.383-0.113,8.347-0.295,11.214-0.463
									c1.338-0.087,2.471-0.161,3.393-0.221c0.342-0.028,0.645-0.052,0.921-0.075c0.21-0.019,0.321-0.033,0.32-0.04
									c-0.001-0.007-0.112-0.008-0.323-0.002c-0.277,0.011-0.581,0.022-0.924,0.035c-0.923,0.042-2.057,0.093-3.396,0.154
									c-2.868,0.129-6.831,0.288-11.211,0.401c-4.379,0.111-8.345,0.156-11.216,0.173c-1.341,0.008-2.477,0.015-3.401,0.02
									c-0.343,0.004-0.647,0.008-0.925,0.012C203.246,461.94,203.135,461.946,203.134,461.953z"/>
							</g>
						</g>
					</g>
					<g>
						<g>
							<g>
								<path style="fill:#263238;" d="M228.331,461.769c0.069,0.006,0.1-0.749,0.589-1.524c0.475-0.783,1.162-1.187,1.121-1.24
									c-0.015-0.052-0.806,0.297-1.318,1.135C228.201,460.972,228.275,461.783,228.331,461.769z"/>
							</g>
						</g>
					</g>
					<g>
						<g>
							<g>
								<path style="fill:#263238;" d="M222.736,459.313c0.054,0.03,0.309-0.276,0.569-0.682c0.26-0.406,0.428-0.76,0.374-0.79
									c-0.054-0.03-0.308,0.276-0.569,0.682C222.85,458.929,222.683,459.283,222.736,459.313z"/>
							</g>
						</g>
					</g>
					<g>
						<g>
							<g>
								<path style="fill:#263238;" d="M221.2,458.609c0.043,0.042,0.333-0.149,0.646-0.426c0.314-0.278,0.533-0.537,0.49-0.579
									c-0.043-0.042-0.333,0.149-0.646,0.426C221.377,458.307,221.157,458.566,221.2,458.609z"/>
							</g>
						</g>
					</g>
					<g>
						<g>
							<g>
								<path style="fill:#263238;" d="M220.194,456.994c0.001,0.058,0.439,0.099,0.979,0.09c0.54-0.009,0.976-0.063,0.975-0.121
									c-0.001-0.058-0.439-0.098-0.979-0.09C220.629,456.881,220.192,456.935,220.194,456.994z"/>
							</g>
						</g>
					</g>
					<g>
						<g>
							<g>
								<path style="fill:#263238;" d="M219.83,455.846c-0.019,0.053,0.462,0.24,1.097,0.266c0.635,0.029,1.133-0.115,1.119-0.169
									c-0.012-0.06-0.506-0.013-1.109-0.042C220.335,455.877,219.848,455.787,219.83,455.846z"/>
							</g>
						</g>
					</g>
					<g>
						<g>
							<g>
								<path style="fill:#263238;" d="M223.324,457.78c-0.001,0.023,0.462,0.064,1.201-0.039c0.369-0.051,0.804-0.144,1.271-0.296
									c0.232-0.084,0.475-0.148,0.723-0.3c0.117-0.077,0.245-0.184,0.287-0.355c0.045-0.169-0.057-0.354-0.196-0.442
									c-1.165-0.523-2.296,0.108-2.706,0.671c-0.226,0.288-0.325,0.565-0.369,0.755c-0.042,0.192-0.035,0.301-0.022,0.303
									c0.043,0.013,0.068-0.442,0.518-0.967c0.222-0.257,0.563-0.511,1.007-0.647c0.42-0.128,1.023-0.176,1.434,0.053
									c0.195,0.126,0.127,0.337-0.082,0.46c-0.194,0.124-0.447,0.203-0.667,0.286c-0.45,0.157-0.87,0.263-1.228,0.332
									C223.781,457.733,223.323,457.746,223.324,457.78z"/>
							</g>
						</g>
					</g>
					<g>
						<g>
							<g>
								<path style="fill:#263238;" d="M223.637,457.828c0.017,0.012,0.186-0.278,0.115-0.779c-0.037-0.246-0.143-0.536-0.353-0.807
									c-0.22-0.242-0.503-0.577-1.017-0.543c-0.277,0.04-0.404,0.339-0.355,0.525c0.028,0.195,0.128,0.36,0.219,0.493
									c0.187,0.274,0.396,0.495,0.588,0.661c0.387,0.332,0.688,0.455,0.701,0.434c0.02-0.028-0.245-0.194-0.587-0.539
									c-0.17-0.173-0.356-0.392-0.523-0.657c-0.172-0.232-0.298-0.653,0.002-0.711c0.3-0.035,0.615,0.235,0.806,0.453
									c0.196,0.237,0.309,0.494,0.362,0.717C223.7,457.527,223.597,457.82,223.637,457.828z"/>
							</g>
						</g>
					</g>
					<g>
						<g>
							<g>
								<path style="fill:#263238;" d="M203.371,457.189c0.005,0.039,0.534-0.061,1.382,0.009c0.839,0.064,2.013,0.353,3.048,1.075
									c1.034,0.724,1.658,1.692,1.958,2.424c0.308,0.737,0.351,1.237,0.393,1.231c0.014-0.001,0.017-0.126-0.01-0.351
									c-0.026-0.224-0.094-0.547-0.232-0.932c-0.268-0.765-0.894-1.786-1.972-2.542c-1.079-0.753-2.309-1.028-3.173-1.056
									c-0.436-0.017-0.788,0.013-1.027,0.052C203.497,457.139,203.369,457.176,203.371,457.189z"/>
							</g>
						</g>
					</g>
					<g>
						<g>
							<g>
								<path style="fill:#263238;" d="M212.484,460.271c-0.006,0.055,1.217,0.209,2.736,0.18c1.52-0.025,2.736-0.221,2.727-0.275
									c-0.008-0.061-1.226,0.041-2.732,0.065C213.711,460.269,212.489,460.21,212.484,460.271z"/>
							</g>
						</g>
					</g>
					<g>
						<g>
							<g>
								<path style="fill:#263238;" d="M208.82,460.362c-0.044,0.044,0.107,0.238,0.24,0.495c0.137,0.256,0.208,0.486,0.272,0.481
									c0.06-0.002,0.088-0.277-0.068-0.573C209.109,460.468,208.859,460.319,208.82,460.362z"/>
							</g>
						</g>
					</g>
					<g>
						<g>
							<g>
								<path style="fill:#263238;" d="M207.391,458.801c-0.043,0.042,0.083,0.22,0.282,0.397c0.199,0.177,0.395,0.287,0.438,0.245
									c0.043-0.042-0.083-0.22-0.282-0.397C207.631,458.869,207.434,458.759,207.391,458.801z"/>
							</g>
						</g>
					</g>
					<g>
						<g>
							<g>
								<path style="fill:#263238;" d="M205.393,458.123c0.015,0.059,0.263,0.05,0.54,0.133c0.279,0.077,0.479,0.213,0.527,0.173
									c0.049-0.033-0.115-0.277-0.46-0.374C205.656,457.955,205.373,458.07,205.393,458.123z"/>
							</g>
						</g>
					</g>
					<g>
						<g>
							<g>
								<path style="fill:#263238;" d="M203.977,457.816c-0.021,0.055,0.089,0.141,0.246,0.193c0.157,0.052,0.301,0.049,0.322-0.005
									c0.021-0.055-0.089-0.141-0.246-0.193C204.142,457.759,203.998,457.761,203.977,457.816z"/>
							</g>
						</g>
					</g>
				</g>
			</g>
			<g>
				<polygon style="fill:#E8505B;" points="134.868,449.577 132.089,461.804 150.87,461.804 151.674,453.844 				"/>
				<g>
					<path style="fill:#263238;" d="M151.254,460.028c0,0.07-1.045,0.14-2.736,0.157c-1.691,0.019-4.026-0.027-6.601-0.121
						c-2.482-0.105-4.727-0.201-6.59-0.28c-1.686-0.081-2.729-0.146-2.729-0.22c0-0.07,1.045-0.135,2.736-0.149
						c1.691-0.015,4.026,0.033,6.601,0.128c2.481,0.103,4.726,0.196,6.589,0.274C150.21,459.894,151.253,459.954,151.254,460.028z"
						/>
				</g>
				<g>
					<path style="fill:#263238;" d="M143.296,451.96c0.144,0.01,0.141,1.782-0.006,3.959c-0.147,2.177-0.382,3.934-0.525,3.924
						c-0.143-0.01-0.141-1.782,0.006-3.959C142.918,453.707,143.153,451.95,143.296,451.96z"/>
				</g>
				<polyline style="opacity:0.6;fill:#FFFFFF;" points="132.089,461.804 150.87,461.804 151.049,460.028 132.427,459.564 
					132.089,461.591 				"/>
			</g>
			<path style="fill:#FFBE9D;" d="M252.293,166.98l-6.849,2.471c-0.098-2.743-1.963-5.601-1.963-4.226s-0.648,8.453-0.648,8.453
				l-14.286,24.854c-1.987,3.959-5.566,6.266-8.137,6.675l-11.717,2.509l3.293,15.489l16.328-4.032
				c4.237-1.046,7.726-4.039,9.406-8.066l13.585-32.564c0,0,1.601-3.698,2.288-6.447C254.278,169.347,252.293,166.98,252.293,166.98
				z"/>
		</g>
	</g>
</g>
</svg>
